<svg height="512" viewBox="0 0 128 128" width="512" xmlns="http://www.w3.org/2000/svg"><g><g><path d="m86.1 12.8a4.189 4.189 0 0 0 -6.3-4.455 4.191 4.191 0 1 0 -4.451 6.425l-3.207 14.9 5.866 1.263 3.207-14.9a4.192 4.192 0 0 0 4.885-3.233z" fill="#eaeaf0"/><path d="m85.682 53.73c-2.956 13.731-11.415 20.494-19.672 18.717s-13.185-11.423-10.23-25.153 12.675-26.348 20.933-24.571 11.924 17.277 8.969 31.007z" fill="#d78759"/><path d="m42.442 106.725c-33.2 0-41.469-22.6-18.36-36.475 27.057-16.25 25.378-29.421 48.858-33.267 31.848-4.264 44.083 10.8 44.083 26.2 0 21.017-7.377 41.858-38.415 43.545s-36.166-.003-36.166-.003z" fill="#f4a86c"/><path d="m114.831 15.721a4.189 4.189 0 0 0 -4.6-6.186 4.192 4.192 0 1 0 -6.231 4.728l-7.662 13.172 5.185 3.018 7.667-13.171a4.191 4.191 0 0 0 5.641-1.561z" fill="#eaeaf0"/><path d="m101.747 54.506c-7.065 12.138-17.2 15.947-24.5 11.7s-9-14.946-1.93-27.085 20.212-21.121 27.512-16.875 5.983 20.121-1.082 32.26z" fill="#d78759"/><path d="m12.922 110.667h102.155v10.833h-102.155z" fill="#d8d8d8"/><path d="m6.5 97.808h115a0 0 0 0 1 0 0v5.692a12 12 0 0 1 -12 12h-91a12 12 0 0 1 -12-12v-5.692a0 0 0 0 1 0 0z" fill="#eaeaf0"/></g><g fill="#041925"><path d="m32.518 66.409a1.742 1.742 0 0 0 1.034-.339q1.458-1.07 2.779-2.113a1.75 1.75 0 0 0 -2.166-2.75q-1.28 1.008-2.684 2.041a1.75 1.75 0 0 0 1.037 3.161z"/><path d="m121.5 96.058h-12.89c6.745-7.583 10.16-18.616 10.16-32.878a26.364 26.364 0 0 0 -10.217-21.417c.22-1.011.416-2.02.557-3.018a1.75 1.75 0 0 0 -3.466-.49 43.418 43.418 0 0 1 -5.409 15.371c-3.188 5.474-7.118 9.374-11.367 11.274a11.534 11.534 0 0 1 -10.744-.212c-6.892-4.008-7.424-14.162-1.299-24.688a41.956 41.956 0 0 1 13.1-13.985c4.829-3.071 9.212-3.895 12.027-2.255 2.409 1.4 3.361 4.365 3.736 6.6a1.75 1.75 0 0 0 3.452-.578 15.634 15.634 0 0 0 -1.962-5.573l2.792-4.79a5.944 5.944 0 1 0 1.349-11.756 5.946 5.946 0 1 0 -9.563 6.976l-2.79 4.793c-3.241-.1-6.973 1.117-10.919 3.626a37.713 37.713 0 0 0 -4.093 3.03 14.034 14.034 0 0 0 -2.5-2.844l1.171-5.421a5.9 5.9 0 0 0 5.188-4.657 5.936 5.936 0 0 0 -7.547-6.937 5.935 5.935 0 0 0 -9.735 3.219 5.893 5.893 0 0 0 2.811 6.381l-1.171 5.424c-6.489 1.931-13.164 10.116-16.68 20.567a71.065 71.065 0 0 0 -9.491 8.527c-2.334 2.359-4.746 4.8-7.739 7.439a1.75 1.75 0 1 0 2.316 2.625c3.082-2.72 5.648-5.314 7.912-7.6 6.883-6.961 11.856-11.99 24.678-14.092.139-.018.263-.031.4-.049-6.892 12.16-5.777 24.06 2.8 29.05a14.007 14.007 0 0 0 7.106 1.913 16.715 16.715 0 0 0 6.827-1.533c4.921-2.2 9.4-6.6 12.962-12.712a47.89 47.89 0 0 0 4.317-9.893 23.035 23.035 0 0 1 7.691 17.685c0 14.958-3.914 26.009-11.616 32.878h-87.923a11.778 11.778 0 0 1 -2.885-9.439c.761-5.346 5.071-10.626 12.135-14.869 1.316-.79 2.608-1.6 3.841-2.405a1.75 1.75 0 0 0 -1.915-2.93c-1.2.782-2.45 1.567-3.728 2.335-7.985 4.8-12.886 10.966-13.8 17.376a14.849 14.849 0 0 0 2.031 9.932h-4.91a1.75 1.75 0 0 0 -1.75 1.75v5.692a13.74 13.74 0 0 0 6.42 11.613v6.387a1.75 1.75 0 0 0 1.75 1.75h102.16a1.75 1.75 0 0 0 1.75-1.75v-6.387a13.74 13.74 0 0 0 6.42-11.613v-5.692a1.75 1.75 0 0 0 -1.75-1.75zm-16.582-83.288a2.442 2.442 0 1 1 3.631-2.752 1.751 1.751 0 0 0 2.086 1.214 2.446 2.446 0 0 1 2.937 1.759 2.442 2.442 0 0 1 -3.542 2.754 1.751 1.751 0 0 0 -2.352.654l-2.935 5.036a8.645 8.645 0 0 0 -2.167-1.251l2.936-5.044a1.749 1.749 0 0 0 -.594-2.37zm-30.967-2.581a2.453 2.453 0 0 1 2.9-1.889 2.491 2.491 0 0 1 1.52 1.03 1.75 1.75 0 0 0 2.351.506 2.442 2.442 0 1 1 .826 4.475 1.75 1.75 0 0 0 -2.034 1.35l-1.233 5.707a9.381 9.381 0 0 0 -1.192-.357 8.921 8.921 0 0 0 -1.245-.172l1.23-5.7a1.751 1.751 0 0 0 -1.3-2.072 2.418 2.418 0 0 1 -1.823-2.878zm-1.294 25.065a44.078 44.078 0 0 0 -12.295 3.7c3.494-7.828 8.828-13.681 13.606-14.542a5.945 5.945 0 0 1 2.365.018 6.247 6.247 0 0 1 2.188.965 10.24 10.24 0 0 1 2.82 3.116 47.869 47.869 0 0 0 -5.355 6.36c-1.034.098-2.121.223-3.329.383zm47.093 68.246a10.261 10.261 0 0 1 -10.25 10.25h-56.375a1.75 1.75 0 0 0 0 3.5h56.375a13.686 13.686 0 0 0 3.83-.554v3.054h-98.66v-3.05a13.686 13.686 0 0 0 3.83.554h25.375a1.75 1.75 0 0 0 0-3.5h-25.375a10.261 10.261 0 0 1 -10.25-10.254v-3.942h111.5z"/><path d="m98.75 107.75h-8.125a1.75 1.75 0 0 0 0 3.5h8.125a1.75 1.75 0 0 0 0-3.5z"/></g></g></svg>